<?xml version="1.0" encoding="UTF-8"?>
<svg id="Layer_1" data-name="Layer 1" xmlns="http://www.w3.org/2000/svg" viewBox="0 0 1910.73 176.87">
  <defs>
    <style>
      .cls-1 {
        fill: #1a9175;
      }

      .cls-2 {
        fill: #fff;
      }
    </style>
  </defs>
  <g>
    <g>
      <path class="cls-2" d="M27.59,46.34v41.49h37.23c15.56,0,22.23-10.37,22.23-20.74s-6.85-20.75-22.23-20.75H27.59ZM117.98,153.21h-27.97l-37.6-43.34h-24.82v43.34H3.14V23.37c20.56,0,41.12.19,61.68.19,30.56.19,46.68,20.56,46.68,42.97,0,17.78-8.15,35.75-32.78,40.75l39.27,44.27v1.67Z"/>
      <path class="cls-2" d="M187.97,132.19c29.59,0,40.71-22.24,41.07-42.86.36-20.98-11.66-44.3-40.53-44.84-26.72,0-42.5,20.09-41.79,45.02.54,20.62,11.66,42.68,41.25,42.68M252.35,88.97c-.36,32.46-20.27,64.92-64.38,64.92s-64.56-31.74-64.56-64.74c0-39.64,28.69-66.18,65.1-66.18,42.86.36,64.2,33.36,63.85,66"/>
    </g>
    <polygon class="cls-2" points="386.71 153.21 360.89 153.21 317.49 73.56 273.91 153.21 248.26 153.21 317.49 23.37 386.71 153.21"/>
    <polygon class="cls-1" points="317.49 99.44 301.61 126.95 333.37 126.95 317.49 99.44"/>
    <g>
      <path class="cls-2" d="M1765.6,114.89c-3.71,1.48-7.41,2.22-11.12,2.22-9.41,0-16.52-2.76-21.34-8.28-4.82-5.52-7.26-12.21-7.34-20.06-.07-7.85,2.37-14.63,7.34-20.34,4.96-5.7,12.08-8.56,21.34-8.56,8,0,14.71,2.67,20.12,8l8.34-8c-7.85-7.85-17.34-11.78-28.45-11.78-6.67,0-12.69,1.15-18.06,3.45-5.37,2.3-9.69,5.39-12.95,9.28-3.26,3.89-5.74,8.22-7.45,13-1.71,4.78-2.56,9.8-2.56,15.06s.83,10.23,2.5,14.89c1.67,4.67,4.13,8.89,7.39,12.67,3.26,3.78,7.56,6.78,12.89,9,5.33,2.22,11.41,3.34,18.23,3.34,11.71,0,21.45-3.85,29.23-11.56l-8.56-8.56c-2.67,2.67-5.86,4.74-9.56,6.23M1689.8,49.42h-12.34v77.8h12.34V49.42ZM1635.67,65.04c2.52,2.85,3.78,6.21,3.78,10.06s-1.26,7.23-3.78,9.89c-2.52,2.67-6.23,4-11.11,4h-23.67v-28.23h23.78c4.82,0,8.48,1.43,11,4.28M1631,99.11c7.19-1.04,12.51-3.8,15.95-8.28,3.45-4.48,5.17-9.8,5.17-15.95,0-6.96-2.43-12.95-7.28-17.95-4.85-5-11.58-7.5-20.17-7.5-4,0-10.04-.02-18.12-.06-8.08-.04-14.12-.05-18.12-.05v77.91h12.45v-26.9h16.45l23.67,26.9h14.56l-1.33-2.22-23.23-25.9ZM1518.53,115v-20.89h42.9v-11.56h-42.9v-21.01h44.68v-12.11h-57.13v77.8h57.46v-12.23h-45.01ZM1477.63,127.34V49.53h-14.45l-25.56,36.46-25.67-36.46h-14.45v77.8h12.45v-59.68l26.12,36.79h2.67l26.45-36.79v59.68h12.45ZM1319.69,99.55l16.45-37.01,16.45,37.01h-32.9ZM1377.82,127.22l-34.9-77.8h-13.56l-34.9,77.8h13.23l7.34-16.34h42.12l7.45,16.34h13.22ZM1202.77,96.88h40.46v-11.56h-40.46v-23.67h42.57v-12.11h-55.02v77.69h12.45v-30.34ZM1106.68,67.54c4.85-5.48,11.65-8.22,20.4-8.22,6,.07,11.13,1.61,15.39,4.61,4.26,3,7.3,6.65,9.11,10.95,1.82,4.3,2.72,8.97,2.72,14,0,8.15-2.3,14.95-6.89,20.4s-11.45,8.17-20.56,8.17c-4.59,0-8.69-.83-12.28-2.5-3.59-1.67-6.47-3.89-8.61-6.67-2.15-2.78-3.76-5.82-4.83-9.12-1.08-3.3-1.65-6.72-1.72-10.28,0-8.74,2.43-15.85,7.28-21.34M1098.29,59.48c-7.48,7.67-11.23,17.43-11.23,29.29,0,5.26.83,10.25,2.5,14.95,1.67,4.71,4.07,8.95,7.22,12.73,3.15,3.78,7.32,6.8,12.5,9.06,5.19,2.26,11.04,3.39,17.56,3.39s12.38-1.09,17.56-3.28c5.19-2.18,9.36-5.17,12.51-8.95,3.15-3.78,5.56-8.06,7.22-12.84,1.67-4.78,2.5-9.84,2.5-15.17,0-11.26-3.45-20.84-10.34-28.73-6.89-7.89-16.64-11.87-29.23-11.95-11.71,0-21.3,3.84-28.79,11.5M966.47,49.42v.56l30.01,45.35v31.9h12.45v-31.9l30.9-45.35v-.56h-15l-22.12,34.34-21.45-34.34h-14.78ZM928.46,127.22V60.65h25.45v-11.23h-63.57v11.23h25.56v66.57h12.56ZM834.66,127.22h53.46v-11.56h-41.01V49.42h-12.45v77.8ZM756.86,99.55l16.45-37.01,16.45,37.01h-32.9ZM814.99,127.22l-34.9-77.8h-13.56l-34.9,77.8h13.23l7.34-16.34h42.12l7.45,16.34h13.23ZM670.5,115v-20.89h42.9v-11.56h-42.9v-21.01h44.68v-12.11h-57.13v77.8h57.46v-12.23h-45.01ZM616.26,65.04c2.52,2.85,3.78,6.21,3.78,10.06s-1.26,7.23-3.78,9.89c-2.52,2.67-6.22,4-11.11,4h-23.67v-28.23h23.79c4.82,0,8.48,1.43,11,4.28M611.59,99.11c7.19-1.04,12.5-3.8,15.95-8.28,3.45-4.48,5.17-9.8,5.17-15.95,0-6.96-2.43-12.95-7.28-17.95-4.85-5-11.58-7.5-20.17-7.5-4,0-10.04-.02-18.12-.06-8.08-.04-14.12-.05-18.12-.05v77.91h12.45v-26.9h16.45l23.67,26.9h14.56l-1.33-2.22-23.23-25.9Z"/>
      <path class="cls-2" d="M1907.7,64.49l-.56-9.46c-.06-1.24-.06-2.78-.11-4.49h-.17c-.39,1.42-.84,3.31-1.29,4.79l-2.74,8.93h-3.13l-2.74-9.16c-.28-1.24-.73-3.13-1.06-4.55h-.17c0,1.48-.05,3.01-.11,4.49l-.56,9.46h-2.91l1.12-16.08h4.53l2.63,7.86c.34,1.24.61,2.42,1.01,4.08h.05c.39-1.48.73-2.84,1.06-4.02l2.63-7.92h4.36l1.17,16.08h-3.02ZM1891.26,48.42v2.66h-4.87v13.42h-3.02v-13.42h-4.87v-2.66h12.76Z"/>
      <path class="cls-2" d="M475.84,171.59c0,1.36,1.11,2.47,2.47,2.47s2.47-1.11,2.47-2.47V5.28c0-1.36-1.11-2.47-2.47-2.47s-2.47,1.11-2.47,2.47v166.3Z"/>
    </g>
  </g>
  <g>
    <path class="cls-2" d="M1879.65,127.22h-15.47l-26.01-47.73-26.11,47.73h-15.37l41.48-77.8,41.48,77.8Z"/>
    <polygon class="cls-1" points="1838.18 95.01 1828.66 111.49 1847.69 111.49 1838.18 95.01"/>
  </g>
</svg>