<?xml version="1.0" encoding="UTF-8"?>
<svg id="Layer_1" data-name="Layer 1" xmlns="http://www.w3.org/2000/svg" viewBox="0 0 965 445">
  <defs>
    <style>
      .cls-1 {
        fill: #1d9276;
      }

      .cls-2 {
        fill: #fff;
      }
    </style>
  </defs>
  <g>
    <path class="cls-2" d="M289.33,329.55h-70.21l-94.39-108.81h-62.31v108.81H1.04V3.59c51.61,0,103.23.46,154.84.46,76.72.46,117.18,51.61,117.18,107.88,0,44.64-20.46,89.74-82.3,102.3l98.58,111.13v4.18ZM62.41,61.25v104.16h93.46c39.06,0,55.8-26.04,55.8-52.08s-17.2-52.08-55.8-52.08H62.41Z"/>
    <path class="cls-2" d="M626.65,168.28c-.9,81.49-50.88,162.98-161.63,162.98s-162.08-79.69-162.08-162.53c0-99.5,72.04-166.13,163.43-166.13,107.6.9,161.18,83.74,160.28,165.68ZM465.02,276.79c74.29,0,102.2-55.83,103.1-107.6.9-52.68-29.26-111.2-101.75-112.56-67.08,0-106.7,50.42-104.9,113.01,1.35,51.78,29.26,107.15,103.55,107.15Z"/>
    <path class="cls-2" d="M963.96,329.55h-64.83l-108.95-199.97-109.4,199.97h-64.38L790.18,3.59l173.79,325.96Z"/>
    <path class="cls-2" d="M50.34,441.13h-12l-16.15-18.61h-10.65v18.61H1.04v-55.74c8.82,0,17.66.08,26.48.08,13.12.08,20.04,8.83,20.04,18.45,0,7.63-3.5,15.35-14.07,17.49l16.85,19.01v.71ZM11.53,395.24v17.81h15.98c6.68,0,9.54-4.45,9.54-8.91s-2.94-8.91-9.54-8.91h-15.98Z"/>
    <path class="cls-2" d="M108.24,441.13h-41.67v-55.67h41.67v10.18h-31.25v12.8h30.14v9.78h-30.14v12.56h31.25v10.34Z"/>
    <path class="cls-2" d="M165.99,430.63h-29.1l-4.78,10.5h-11.37l24.97-55.67h11.45l24.97,55.67h-11.45l-4.69-10.5ZM151.44,397.15l-10.34,23.69h20.68l-10.34-23.69Z"/>
    <path class="cls-2" d="M207.13,385.46v45.96h28.62v9.7h-39.12v-55.67h10.5Z"/>
    <path class="cls-2" d="M256.6,395.01h-17.65v-9.55h45.8v9.55h-17.66v46.12h-10.5v-46.12Z"/>
    <path class="cls-2" d="M321.27,408.44l14.79-22.98h12.64v.48l-22.19,32.21v22.98h-10.5v-22.98l-21.39-32.21v-.48h12.49l14.15,22.98Z"/>
    <path class="cls-2" d="M440.88,413.61c-.16,14.39-8.99,28.79-28.55,28.79s-28.62-14.07-28.62-28.71c0-17.57,12.72-29.35,28.86-29.35,19.01.16,28.47,14.79,28.31,29.26ZM412.33,432.78c13.12,0,18.05-9.86,18.21-19.01.16-9.3-5.17-19.64-17.98-19.88-11.85,0-18.85,8.91-18.53,19.96.24,9.15,5.17,18.93,18.29,18.93Z"/>
    <path class="cls-2" d="M458.4,441.13v-55.58h40v10.1h-29.5v15.19h27.91v9.7h-27.91v20.6h-10.5Z"/>
    <path class="cls-2" d="M577.61,430.63h-29.1l-4.78,10.5h-11.37l24.97-55.67h11.45l24.97,55.67h-11.45l-4.69-10.5ZM563.06,397.15l-10.34,23.69h20.68l-10.34-23.69Z"/>
    <path class="cls-2" d="M656.69,400.81l-18.13,24.17h-2.07l-17.73-24.26v40.48h-10.5v-55.66h12.09l17.41,23.94,17.42-23.94h12v55.66h-10.49v-40.39Z"/>
    <path class="cls-2" d="M729.7,441.13h-41.67v-55.67h41.67v10.18h-31.25v12.8h30.14v9.78h-30.14v12.56h31.25v10.34Z"/>
    <path class="cls-2" d="M797.87,441.13h-12l-16.15-18.61h-10.65v18.61h-10.5v-55.74c8.82,0,17.66.08,26.48.08,13.12.08,20.04,8.83,20.04,18.45,0,7.63-3.5,15.35-14.07,17.49l16.85,19.01v.71ZM759.06,395.24v17.81h15.98c6.68,0,9.54-4.45,9.54-8.91s-2.94-8.91-9.54-8.91h-15.98Z"/>
    <path class="cls-2" d="M814.11,441.13v-55.67h10.42v55.67h-10.42Z"/>
    <path class="cls-2" d="M892.84,434.13c-5.72,5.65-13.12,8.27-21.15,8.27-20.68,0-29.43-14.23-29.5-28.71-.08-14.55,9.38-29.35,29.5-29.35,7.55,0,14.71,2.86,20.43,8.51l-6.99,6.76c-3.66-3.58-8.59-5.25-13.44-5.25-13.44,0-19.25,10.02-19.17,19.33.08,9.22,5.41,18.84,19.17,18.84,4.85,0,10.34-1.99,14-5.64l7.15,7.24Z"/>
    <path class="cls-2" d="M947.57,430.63h-29.1l-4.78,10.5h-11.37l24.97-55.67h11.45l24.97,55.67h-11.45l-4.69-10.5ZM933.01,397.15l-10.34,23.69h20.68l-10.34-23.69Z"/>
    <polygon class="cls-1" points="790.18 194.57 750.31 263.62 830.05 263.62 790.18 194.57"/>
  </g>
  <path class="cls-2" d="M923.82,3.59v3.51h-6.79v17.71h-4.21V7.1h-6.79v-3.51h17.79ZM946.75,24.81l-.78-12.48c-.08-1.64-.08-3.67-.16-5.93h-.23c-.55,1.87-1.17,4.37-1.79,6.32l-3.82,11.78h-4.37l-3.82-12.09c-.39-1.64-1.01-4.13-1.48-6.01h-.23c0,1.95-.08,3.98-.16,5.93l-.78,12.48h-4.06l1.56-21.22h6.32l3.67,10.37c.47,1.64.86,3.2,1.4,5.38h.08c.55-1.95,1.01-3.74,1.48-5.3l3.67-10.45h6.08l1.64,21.22h-4.21Z"/>
</svg>